<svg width="23" height="23" viewBox="0 0 23 23" fill="none" xmlns="http://www.w3.org/2000/svg">
<g id="icn bxs-star">
<path id="Vector" d="M20.5964 8.41964C20.5387 8.24983 20.4326 8.10061 20.2911 7.99043C20.1496 7.88024 19.979 7.81389 19.8002 7.79959L14.5711 7.38408L12.3083 2.37506C12.2362 2.21373 12.119 2.07671 11.9708 1.98052C11.8225 1.88434 11.6496 1.8331 11.473 1.83301C11.2963 1.83291 11.1233 1.88395 10.975 1.97998C10.8267 2.076 10.7093 2.2129 10.6371 2.37415L8.37424 7.38408L3.14509 7.79959C2.9694 7.8135 2.80144 7.87774 2.6613 7.98462C2.52116 8.0915 2.41478 8.23648 2.35489 8.40224C2.29499 8.56799 2.28412 8.74749 2.32356 8.91926C2.36301 9.09103 2.45111 9.2478 2.57732 9.37081L6.44163 13.1379L5.07495 19.0559C5.03345 19.235 5.04675 19.4225 5.11313 19.594C5.1795 19.7655 5.29588 19.913 5.44717 20.0175C5.59845 20.1221 5.77766 20.1787 5.96153 20.1801C6.14541 20.1815 6.32546 20.1276 6.47832 20.0254L11.4727 16.6958L16.467 20.0254C16.6232 20.1291 16.8075 20.1825 16.995 20.1784C17.1825 20.1743 17.3642 20.1129 17.5158 20.0024C17.6673 19.8919 17.7814 19.7377 17.8426 19.5604C17.9039 19.3832 17.9094 19.1914 17.8584 19.0109L16.1808 13.1406L20.3414 9.39649C20.6138 9.15067 20.7138 8.76727 20.5964 8.41964Z" fill="#F3CD03"/>
</g>
</svg>
