<svg width="31" height="30" viewBox="0 0 31 30" fill="none" xmlns="http://www.w3.org/2000/svg">
<path d="M2.12857 8.265C3.40206 5.77987 5.35567 3.69077 7.77107 2.2312C10.1865 0.77164 12.9685 -0.000875353 15.8061 7.44347e-07C19.9311 7.44347e-07 23.3964 1.4865 26.0459 3.9075L21.6577 8.2095C20.0704 6.723 18.0531 5.9655 15.8061 5.9655C11.8189 5.9655 8.44388 8.6055 7.24235 12.15C6.93623 13.05 6.76174 14.01 6.76174 15C6.76174 15.99 6.93623 16.95 7.24235 17.85C8.44541 21.396 11.8189 24.0345 15.8061 24.0345C17.8648 24.0345 19.6173 23.502 20.9888 22.602C21.7838 22.089 22.4645 21.4233 22.9896 20.6452C23.5147 19.8671 23.8734 18.9928 24.0439 18.075H15.8061V12.273H30.2214C30.402 13.254 30.5 14.277 30.5 15.3405C30.5 19.9095 28.8316 23.7555 25.9357 26.3655C23.4041 28.6575 19.9388 30 15.8061 30C13.7959 30.0008 11.8052 29.6133 9.94777 28.8598C8.09038 28.1063 6.40273 27.0014 4.98127 25.6084C3.5598 24.2153 2.43239 22.5614 1.66347 20.7412C0.894552 18.9209 0.499197 16.9701 0.500001 15C0.500001 12.579 1.09082 10.29 2.12857 8.265Z" fill="black"/>
</svg>
