<svg width="36" height="30" viewBox="0 0 36 30" fill="none" xmlns="http://www.w3.org/2000/svg">
<path id="Vector" d="M31.3974 4.75241C32.9685 3.73331 34.0087 2.34231 34.5181 0.573249C33.0833 1.39328 31.5436 1.98916 29.947 2.34231C28.5801 0.788988 26.8496 0 24.775 0C22.7471 0 21.0341 0.752003 19.6362 2.21492C18.961 2.9096 18.4273 3.74265 18.0675 4.663C17.7078 5.58335 17.5296 6.57163 17.5441 7.56729C17.5441 8.20218 17.6199 8.76926 17.7715 9.25005C11.7908 9.03431 6.84048 6.41257 2.94014 1.36634C2.27907 2.60119 1.94853 3.85864 1.94853 5.15924C1.94853 7.83234 3.01597 9.95069 5.14696 11.5061C3.93175 11.3972 2.86042 11.0725 1.94853 10.5404C1.94853 12.4491 2.47933 14.0436 3.54289 15.4469C4.57602 16.8143 6.03198 17.7535 7.65516 18.0994C7.04853 18.2638 6.40884 18.3419 5.75165 18.3419C5.14502 18.3419 4.71532 18.2885 4.46061 18.1714C4.90781 19.7267 5.75165 20.9883 6.97075 21.954C8.17593 22.921 9.64192 23.4559 11.155 23.4806C8.56511 25.6277 5.60388 26.69 2.25379 26.69C1.43328 26.69 0.851925 26.6776 0.5 26.6119C3.79954 28.8761 7.47239 30 11.5361 30C15.695 30 19.3698 28.8864 22.5682 26.6591C25.7667 24.4442 28.1271 21.7115 29.6437 18.4939C31.1434 15.3805 31.9243 11.9361 31.9224 8.44257V7.481C33.3203 6.39187 34.5305 5.05674 35.5 3.53401C34.1907 4.13368 32.8107 4.54353 31.3974 4.75241Z" fill="black"/>
</svg>
